<svg viewBox="0 0 300 300" xmlns="http://www.w3.org/2000/svg">
  <defs>
    <linearGradient id="bg5" x1="0" y1="0" x2="1" y2="1">
      <stop offset="0%" stop-color="#e4fdef"/>
      <stop offset="100%" stop-color="#d3f1ec"/>
    </linearGradient>
  </defs>
  <rect width="300" height="300" fill="url(#bg5)"/>
  <circle cx="150" cy="150" r="95" fill="#ffffff" opacity="0.5"/>
  <!-- ear shape -->
  <path d="M150 95 C180 90 205 112 205 142 C205 160 195 167 195 180 C195 197 183 208 168 208 L165 220 C165 225 161 229 156 229 L146 229 C141 229 137 225 137 220 L137 205 C119 200 108 182 108 160 C108 130 122 100 150 95 Z"
        fill="none" stroke="#163b57" stroke-width="7" stroke-linecap="round" stroke-linejoin="round"/>
  <!-- circuit nodes -->
  <circle cx="215" cy="100" r="6" fill="#2a9d8f"/>
  <circle cx="245" cy="120" r="6" fill="#2a9d8f"/>
  <circle cx="225" cy="150" r="6" fill="#2a9d8f"/>
  <circle cx="250" cy="185" r="6" fill="#2a9d8f"/>
  <circle cx="90" cy="95" r="6" fill="#2a9d8f"/>
  <circle cx="70" cy="130" r="6" fill="#2a9d8f"/>
  <!-- circuit lines connecting to ear -->
  <path d="M180 108 L215 100 M197 130 L245 120 M198 150 L225 150 M180 185 L250 185 M130 100 L90 95 M118 122 L70 130"
        stroke="#2a9d8f" stroke-width="3" fill="none" stroke-linecap="round"/>
</svg>
