<svg viewBox="0 0 300 300" xmlns="http://www.w3.org/2000/svg">
  <defs>
    <linearGradient id="bg1" x1="0" y1="0" x2="1" y2="1">
      <stop offset="0%" stop-color="#e4fdef"/>
      <stop offset="100%" stop-color="#d3f1ec"/>
    </linearGradient>
  </defs>
  <rect width="300" height="300" fill="url(#bg1)"/>
  <circle cx="150" cy="150" r="95" fill="#ffffff" opacity="0.5"/>
  <!-- head profile -->
  <path d="M110 120 C110 90 135 68 165 68 C198 68 220 95 218 128 C216 150 226 158 226 172 C226 186 214 190 206 186 C204 200 190 210 176 210 L170 232 C169 238 164 242 158 242 L146 242 C140 242 136 237 136 231 L136 208 C118 200 106 182 106 160 C106 145 108 132 110 120 Z" fill="#163b57"/>
  <!-- ear -->
  <path d="M206 150 C214 148 220 154 220 162 C220 170 214 176 206 174" fill="none" stroke="#e4fdef" stroke-width="5" stroke-linecap="round"/>
  <!-- endoscope arm -->
  <line x1="232" y1="120" x2="206" y2="152" stroke="#2a9d8f" stroke-width="7" stroke-linecap="round"/>
  <line x1="255" y1="98" x2="232" y2="120" stroke="#2a9d8f" stroke-width="7" stroke-linecap="round"/>
  <circle cx="255" cy="98" r="10" fill="#2a9d8f"/>
  <circle cx="255" cy="98" r="4" fill="#ffffff"/>
  <!-- light rays -->
  <path d="M206 152 L214 158 M206 152 L212 148" stroke="#71c8bc" stroke-width="3" stroke-linecap="round"/>
</svg>
